<svg width="104" height="15" viewBox="0 0 104 15" fill="none" xmlns="http://www.w3.org/2000/svg">
<path d="M0.25 8.67622V13.0316C0.25 13.8207 0.909178 14.4606 1.72264 14.4606H5.6968V6.7395L0.25 8.67622Z" fill="url(#paint0_linear_1_2568)"/>
<path d="M5.92383 6.7395L7.8693 9.57389V14.4604L5.92383 11.8678V6.7395Z" fill="url(#paint1_linear_1_2568)"/>
<path d="M8.09692 5.48502V14.4606H13.5465L13.5437 3.54834L8.09692 5.48502Z" fill="url(#paint2_linear_1_2568)"/>
<path d="M13.7705 3.5481L15.9855 7.2801V14.4606L13.7717 10.6214L13.7705 3.5481Z" fill="url(#paint3_linear_1_2568)"/>
<path d="M16.2128 2.194V14.4606H20.9063C21.7196 14.4606 22.3788 13.8209 22.3788 13.0315V0L16.2128 2.194Z" fill="url(#paint4_linear_1_2568)"/>
<path d="M31.8525 10.2407H30.1431V9.55078H31.8525C32.1836 9.55078 32.4517 9.49805 32.6567 9.39258C32.8618 9.28711 33.0112 9.14062 33.105 8.95312C33.2017 8.76562 33.25 8.55176 33.25 8.31152C33.25 8.0918 33.2017 7.88525 33.105 7.69189C33.0112 7.49854 32.8618 7.34326 32.6567 7.22607C32.4517 7.10596 32.1836 7.0459 31.8525 7.0459H30.3408V12.75H29.4927V6.35156H31.8525C32.3359 6.35156 32.7446 6.43506 33.0786 6.60205C33.4126 6.76904 33.666 7.00049 33.8389 7.29639C34.0117 7.58936 34.0981 7.9248 34.0981 8.30273C34.0981 8.71289 34.0117 9.06299 33.8389 9.35303C33.666 9.64307 33.4126 9.86426 33.0786 10.0166C32.7446 10.166 32.3359 10.2407 31.8525 10.2407ZM34.7705 10.4253V10.3242C34.7705 9.98145 34.8203 9.66357 34.9199 9.37061C35.0195 9.07471 35.1631 8.81836 35.3506 8.60156C35.5381 8.38184 35.7651 8.21191 36.0317 8.0918C36.2983 7.96875 36.5972 7.90723 36.9282 7.90723C37.2622 7.90723 37.5625 7.96875 37.8291 8.0918C38.0986 8.21191 38.3271 8.38184 38.5146 8.60156C38.7051 8.81836 38.8501 9.07471 38.9497 9.37061C39.0493 9.66357 39.0991 9.98145 39.0991 10.3242V10.4253C39.0991 10.7681 39.0493 11.0859 38.9497 11.3789C38.8501 11.6719 38.7051 11.9282 38.5146 12.1479C38.3271 12.3647 38.1001 12.5347 37.8335 12.6577C37.5698 12.7778 37.271 12.8379 36.937 12.8379C36.603 12.8379 36.3027 12.7778 36.0361 12.6577C35.7695 12.5347 35.541 12.3647 35.3506 12.1479C35.1631 11.9282 35.0195 11.6719 34.9199 11.3789C34.8203 11.0859 34.7705 10.7681 34.7705 10.4253ZM35.5835 10.3242V10.4253C35.5835 10.6626 35.6113 10.8867 35.667 11.0977C35.7227 11.3057 35.8062 11.4902 35.9175 11.6514C36.0317 11.8125 36.1738 11.9399 36.3438 12.0337C36.5137 12.1245 36.7114 12.1699 36.937 12.1699C37.1597 12.1699 37.3545 12.1245 37.5215 12.0337C37.6914 11.9399 37.832 11.8125 37.9434 11.6514C38.0547 11.4902 38.1382 11.3057 38.1938 11.0977C38.2524 10.8867 38.2817 10.6626 38.2817 10.4253V10.3242C38.2817 10.0898 38.2524 9.86865 38.1938 9.66064C38.1382 9.44971 38.0532 9.26367 37.939 9.10254C37.8276 8.93848 37.687 8.80957 37.5171 8.71582C37.3501 8.62207 37.1538 8.5752 36.9282 8.5752C36.7056 8.5752 36.5093 8.62207 36.3394 8.71582C36.1724 8.80957 36.0317 8.93848 35.9175 9.10254C35.8062 9.26367 35.7227 9.44971 35.667 9.66064C35.6113 9.86865 35.5835 10.0898 35.5835 10.3242ZM41.3228 11.9062L42.5444 7.99512H43.0806L42.9751 8.77295L41.7314 12.75H41.2085L41.3228 11.9062ZM40.501 7.99512L41.5425 11.9502L41.6172 12.75H41.0679L39.688 7.99512H40.501ZM44.2495 11.9194L45.2427 7.99512H46.0513L44.6714 12.75H44.1265L44.2495 11.9194ZM43.1992 7.99512L44.3945 11.8403L44.5308 12.75H44.0122L42.7334 8.76416L42.6279 7.99512H43.1992ZM48.8594 12.8379C48.5283 12.8379 48.228 12.7822 47.9585 12.6709C47.6919 12.5566 47.4619 12.397 47.2686 12.1919C47.0781 11.9868 46.9316 11.7437 46.8291 11.4624C46.7266 11.1812 46.6753 10.8735 46.6753 10.5396V10.355C46.6753 9.96826 46.7324 9.62402 46.8467 9.32227C46.9609 9.01758 47.1162 8.75977 47.3125 8.54883C47.5088 8.33789 47.7314 8.17822 47.9805 8.06982C48.2295 7.96143 48.4873 7.90723 48.7539 7.90723C49.0938 7.90723 49.3867 7.96582 49.6328 8.08301C49.8818 8.2002 50.0854 8.36426 50.2437 8.5752C50.4019 8.7832 50.519 9.0293 50.5952 9.31348C50.6714 9.59473 50.7095 9.90234 50.7095 10.2363V10.6011H47.1587V9.9375H49.8965V9.87598C49.8848 9.66504 49.8408 9.45996 49.7646 9.26074C49.6914 9.06152 49.5742 8.89746 49.4131 8.76855C49.252 8.63965 49.0322 8.5752 48.7539 8.5752C48.5693 8.5752 48.3994 8.61475 48.2441 8.69385C48.0889 8.77002 47.9556 8.88428 47.8442 9.03662C47.7329 9.18896 47.6465 9.375 47.585 9.59473C47.5234 9.81445 47.4927 10.0679 47.4927 10.355V10.5396C47.4927 10.7651 47.5234 10.9775 47.585 11.1768C47.6494 11.373 47.7417 11.5459 47.8618 11.6953C47.9849 11.8447 48.1328 11.9619 48.3057 12.0469C48.4814 12.1318 48.6807 12.1743 48.9033 12.1743C49.1904 12.1743 49.4336 12.1157 49.6328 11.9985C49.832 11.8813 50.0063 11.7246 50.1558 11.5283L50.6479 11.9194C50.5454 12.0747 50.415 12.2227 50.2568 12.3633C50.0986 12.5039 49.9038 12.6182 49.6724 12.7061C49.4438 12.7939 49.1729 12.8379 48.8594 12.8379ZM52.4717 8.74219V12.75H51.6587V7.99512H52.4497L52.4717 8.74219ZM53.957 7.96875L53.9526 8.72461C53.8853 8.70996 53.8208 8.70117 53.7593 8.69824C53.7007 8.69238 53.6333 8.68945 53.5571 8.68945C53.3696 8.68945 53.2041 8.71875 53.0605 8.77734C52.917 8.83594 52.7954 8.91797 52.6958 9.02344C52.5962 9.12891 52.5171 9.25488 52.4585 9.40137C52.4028 9.54492 52.3662 9.70312 52.3486 9.87598L52.1201 10.0078C52.1201 9.7207 52.1479 9.45117 52.2036 9.19922C52.2622 8.94727 52.3516 8.72461 52.4717 8.53125C52.5918 8.33496 52.7441 8.18262 52.9287 8.07422C53.1162 7.96289 53.3389 7.90723 53.5967 7.90723C53.6553 7.90723 53.7227 7.91455 53.7988 7.9292C53.875 7.94092 53.9277 7.9541 53.957 7.96875ZM56.5938 12.8379C56.2627 12.8379 55.9624 12.7822 55.6929 12.6709C55.4263 12.5566 55.1963 12.397 55.0029 12.1919C54.8125 11.9868 54.666 11.7437 54.5635 11.4624C54.4609 11.1812 54.4097 10.8735 54.4097 10.5396V10.355C54.4097 9.96826 54.4668 9.62402 54.5811 9.32227C54.6953 9.01758 54.8506 8.75977 55.0469 8.54883C55.2432 8.33789 55.4658 8.17822 55.7148 8.06982C55.9639 7.96143 56.2217 7.90723 56.4883 7.90723C56.8281 7.90723 57.1211 7.96582 57.3672 8.08301C57.6162 8.2002 57.8198 8.36426 57.978 8.5752C58.1362 8.7832 58.2534 9.0293 58.3296 9.31348C58.4058 9.59473 58.4438 9.90234 58.4438 10.2363V10.6011H54.8931V9.9375H57.6309V9.87598C57.6191 9.66504 57.5752 9.45996 57.499 9.26074C57.4258 9.06152 57.3086 8.89746 57.1475 8.76855C56.9863 8.63965 56.7666 8.5752 56.4883 8.5752C56.3037 8.5752 56.1338 8.61475 55.9785 8.69385C55.8232 8.77002 55.6899 8.88428 55.5786 9.03662C55.4673 9.18896 55.3809 9.375 55.3193 9.59473C55.2578 9.81445 55.2271 10.0679 55.2271 10.355V10.5396C55.2271 10.7651 55.2578 10.9775 55.3193 11.1768C55.3838 11.373 55.4761 11.5459 55.5962 11.6953C55.7192 11.8447 55.8672 11.9619 56.04 12.0469C56.2158 12.1318 56.415 12.1743 56.6377 12.1743C56.9248 12.1743 57.168 12.1157 57.3672 11.9985C57.5664 11.8813 57.7407 11.7246 57.8901 11.5283L58.3823 11.9194C58.2798 12.0747 58.1494 12.2227 57.9912 12.3633C57.833 12.5039 57.6382 12.6182 57.4067 12.7061C57.1782 12.7939 56.9072 12.8379 56.5938 12.8379ZM62.3901 11.8271V6H63.2075V12.75H62.4604L62.3901 11.8271ZM59.1909 10.4253V10.333C59.1909 9.96973 59.2349 9.64014 59.3228 9.34424C59.4136 9.04541 59.541 8.78906 59.7051 8.5752C59.8721 8.36133 60.0698 8.19727 60.2983 8.08301C60.5298 7.96582 60.7876 7.90723 61.0718 7.90723C61.3706 7.90723 61.6313 7.95996 61.854 8.06543C62.0796 8.16797 62.27 8.31885 62.4253 8.51807C62.5835 8.71436 62.708 8.95166 62.7988 9.22998C62.8896 9.5083 62.9526 9.82324 62.9878 10.1748V10.5791C62.9556 10.9277 62.8926 11.2412 62.7988 11.5195C62.708 11.7979 62.5835 12.0352 62.4253 12.2314C62.27 12.4277 62.0796 12.5786 61.854 12.6841C61.6284 12.7866 61.3647 12.8379 61.063 12.8379C60.7847 12.8379 60.5298 12.7778 60.2983 12.6577C60.0698 12.5376 59.8721 12.3691 59.7051 12.1523C59.541 11.9355 59.4136 11.6807 59.3228 11.3877C59.2349 11.0918 59.1909 10.771 59.1909 10.4253ZM60.0083 10.333V10.4253C60.0083 10.6626 60.0317 10.8853 60.0786 11.0933C60.1284 11.3013 60.2046 11.4844 60.3071 11.6426C60.4097 11.8008 60.54 11.9253 60.6982 12.0161C60.8564 12.104 61.0454 12.1479 61.2651 12.1479C61.5347 12.1479 61.7559 12.0908 61.9287 11.9766C62.1045 11.8623 62.2451 11.7114 62.3506 11.5239C62.4561 11.3364 62.5381 11.1328 62.5967 10.9131V9.854C62.5615 9.69287 62.5103 9.5376 62.4429 9.38818C62.3784 9.23584 62.2935 9.10107 62.188 8.98389C62.0854 8.86377 61.958 8.76855 61.8057 8.69824C61.6562 8.62793 61.479 8.59277 61.2739 8.59277C61.0513 8.59277 60.8594 8.63965 60.6982 8.7334C60.54 8.82422 60.4097 8.9502 60.3071 9.11133C60.2046 9.26953 60.1284 9.4541 60.0786 9.66504C60.0317 9.87305 60.0083 10.0957 60.0083 10.333ZM66.7012 6H67.5186V11.8271L67.4482 12.75H66.7012V6ZM70.731 10.333V10.4253C70.731 10.771 70.6899 11.0918 70.6079 11.3877C70.5259 11.6807 70.4058 11.9355 70.2476 12.1523C70.0894 12.3691 69.896 12.5376 69.6675 12.6577C69.439 12.7778 69.1768 12.8379 68.8809 12.8379C68.5791 12.8379 68.314 12.7866 68.0854 12.6841C67.8599 12.5786 67.6694 12.4277 67.5142 12.2314C67.3589 12.0352 67.2344 11.7979 67.1406 11.5195C67.0498 11.2412 66.9868 10.9277 66.9517 10.5791V10.1748C66.9868 9.82324 67.0498 9.5083 67.1406 9.22998C67.2344 8.95166 67.3589 8.71436 67.5142 8.51807C67.6694 8.31885 67.8599 8.16797 68.0854 8.06543C68.311 7.95996 68.5732 7.90723 68.8721 7.90723C69.1709 7.90723 69.436 7.96582 69.6675 8.08301C69.8989 8.19727 70.0923 8.36133 70.2476 8.5752C70.4058 8.78906 70.5259 9.04541 70.6079 9.34424C70.6899 9.64014 70.731 9.96973 70.731 10.333ZM69.9136 10.4253V10.333C69.9136 10.0957 69.8916 9.87305 69.8477 9.66504C69.8037 9.4541 69.7334 9.26953 69.6367 9.11133C69.54 8.9502 69.4126 8.82422 69.2544 8.7334C69.0962 8.63965 68.9014 8.59277 68.6699 8.59277C68.4648 8.59277 68.2861 8.62793 68.1338 8.69824C67.9844 8.76855 67.8569 8.86377 67.7515 8.98389C67.646 9.10107 67.5596 9.23584 67.4922 9.38818C67.4277 9.5376 67.3794 9.69287 67.3472 9.854V10.9131C67.394 11.1182 67.4702 11.3159 67.5757 11.5063C67.6841 11.6938 67.8276 11.8477 68.0063 11.9678C68.188 12.0879 68.4121 12.1479 68.6787 12.1479C68.8984 12.1479 69.0859 12.104 69.2412 12.0161C69.3994 11.9253 69.5269 11.8008 69.6235 11.6426C69.7231 11.4844 69.7964 11.3013 69.8433 11.0933C69.8901 10.8853 69.9136 10.6626 69.9136 10.4253ZM73.0425 12.2578L74.3652 7.99512H75.2354L73.3281 13.4839C73.2842 13.6011 73.2256 13.7271 73.1523 13.8618C73.082 13.9995 72.9912 14.1299 72.8799 14.2529C72.7686 14.376 72.6338 14.4756 72.4756 14.5518C72.3203 14.6309 72.1343 14.6704 71.9175 14.6704C71.853 14.6704 71.771 14.6616 71.6714 14.644C71.5718 14.6265 71.5015 14.6118 71.4604 14.6001L71.4561 13.9409C71.4795 13.9438 71.5161 13.9468 71.5659 13.9497C71.6187 13.9556 71.6553 13.9585 71.6758 13.9585C71.8604 13.9585 72.0171 13.9336 72.146 13.8838C72.2749 13.8369 72.3833 13.7563 72.4712 13.6421C72.562 13.5308 72.6396 13.377 72.7041 13.1807L73.0425 12.2578ZM72.0713 7.99512L73.3062 11.6865L73.5171 12.5435L72.9326 12.8423L71.1836 7.99512H72.0713ZM80.6846 10.2407H78.9751V9.55078H80.6846C81.0156 9.55078 81.2837 9.49805 81.4888 9.39258C81.6938 9.28711 81.8433 9.14062 81.937 8.95312C82.0337 8.76562 82.082 8.55176 82.082 8.31152C82.082 8.0918 82.0337 7.88525 81.937 7.69189C81.8433 7.49854 81.6938 7.34326 81.4888 7.22607C81.2837 7.10596 81.0156 7.0459 80.6846 7.0459H79.1729V12.75H78.3247V6.35156H80.6846C81.168 6.35156 81.5767 6.43506 81.9106 6.60205C82.2446 6.76904 82.498 7.00049 82.6709 7.29639C82.8438 7.58936 82.9302 7.9248 82.9302 8.30273C82.9302 8.71289 82.8438 9.06299 82.6709 9.35303C82.498 9.64307 82.2446 9.86426 81.9106 10.0166C81.5767 10.166 81.168 10.2407 80.6846 10.2407ZM84.7627 6V12.75H83.9453V6H84.7627ZM88.041 12.8379C87.71 12.8379 87.4097 12.7822 87.1401 12.6709C86.8735 12.5566 86.6436 12.397 86.4502 12.1919C86.2598 11.9868 86.1133 11.7437 86.0107 11.4624C85.9082 11.1812 85.8569 10.8735 85.8569 10.5396V10.355C85.8569 9.96826 85.9141 9.62402 86.0283 9.32227C86.1426 9.01758 86.2979 8.75977 86.4941 8.54883C86.6904 8.33789 86.9131 8.17822 87.1621 8.06982C87.4111 7.96143 87.6689 7.90723 87.9355 7.90723C88.2754 7.90723 88.5684 7.96582 88.8145 8.08301C89.0635 8.2002 89.2671 8.36426 89.4253 8.5752C89.5835 8.7832 89.7007 9.0293 89.7769 9.31348C89.853 9.59473 89.8911 9.90234 89.8911 10.2363V10.6011H86.3403V9.9375H89.0781V9.87598C89.0664 9.66504 89.0225 9.45996 88.9463 9.26074C88.873 9.06152 88.7559 8.89746 88.5947 8.76855C88.4336 8.63965 88.2139 8.5752 87.9355 8.5752C87.751 8.5752 87.5811 8.61475 87.4258 8.69385C87.2705 8.77002 87.1372 8.88428 87.0259 9.03662C86.9146 9.18896 86.8281 9.375 86.7666 9.59473C86.7051 9.81445 86.6743 10.0679 86.6743 10.355V10.5396C86.6743 10.7651 86.7051 10.9775 86.7666 11.1768C86.8311 11.373 86.9233 11.5459 87.0435 11.6953C87.1665 11.8447 87.3145 11.9619 87.4873 12.0469C87.6631 12.1318 87.8623 12.1743 88.085 12.1743C88.3721 12.1743 88.6152 12.1157 88.8145 11.9985C89.0137 11.8813 89.188 11.7246 89.3374 11.5283L89.8296 11.9194C89.7271 12.0747 89.5967 12.2227 89.4385 12.3633C89.2803 12.5039 89.0854 12.6182 88.854 12.7061C88.6255 12.7939 88.3545 12.8379 88.041 12.8379ZM91.6533 8.74219V12.75H90.8403V7.99512H91.6313L91.6533 8.74219ZM93.1387 7.96875L93.1343 8.72461C93.0669 8.70996 93.0024 8.70117 92.9409 8.69824C92.8823 8.69238 92.8149 8.68945 92.7388 8.68945C92.5513 8.68945 92.3857 8.71875 92.2422 8.77734C92.0986 8.83594 91.9771 8.91797 91.8774 9.02344C91.7778 9.12891 91.6987 9.25488 91.6401 9.40137C91.5845 9.54492 91.5479 9.70312 91.5303 9.87598L91.3018 10.0078C91.3018 9.7207 91.3296 9.45117 91.3853 9.19922C91.4438 8.94727 91.5332 8.72461 91.6533 8.53125C91.7734 8.33496 91.9258 8.18262 92.1104 8.07422C92.2979 7.96289 92.5205 7.90723 92.7783 7.90723C92.8369 7.90723 92.9043 7.91455 92.9805 7.9292C93.0566 7.94092 93.1094 7.9541 93.1387 7.96875ZM96.7993 11.8271V6H97.6167V12.75H96.8696L96.7993 11.8271ZM93.6001 10.4253V10.333C93.6001 9.96973 93.644 9.64014 93.7319 9.34424C93.8228 9.04541 93.9502 8.78906 94.1143 8.5752C94.2812 8.36133 94.479 8.19727 94.7075 8.08301C94.939 7.96582 95.1968 7.90723 95.481 7.90723C95.7798 7.90723 96.0405 7.95996 96.2632 8.06543C96.4888 8.16797 96.6792 8.31885 96.8345 8.51807C96.9927 8.71436 97.1172 8.95166 97.208 9.22998C97.2988 9.5083 97.3618 9.82324 97.397 10.1748V10.5791C97.3647 10.9277 97.3018 11.2412 97.208 11.5195C97.1172 11.7979 96.9927 12.0352 96.8345 12.2314C96.6792 12.4277 96.4888 12.5786 96.2632 12.6841C96.0376 12.7866 95.7739 12.8379 95.4722 12.8379C95.1938 12.8379 94.939 12.7778 94.7075 12.6577C94.479 12.5376 94.2812 12.3691 94.1143 12.1523C93.9502 11.9355 93.8228 11.6807 93.7319 11.3877C93.644 11.0918 93.6001 10.771 93.6001 10.4253ZM94.4175 10.333V10.4253C94.4175 10.6626 94.4409 10.8853 94.4878 11.0933C94.5376 11.3013 94.6138 11.4844 94.7163 11.6426C94.8188 11.8008 94.9492 11.9253 95.1074 12.0161C95.2656 12.104 95.4546 12.1479 95.6743 12.1479C95.9438 12.1479 96.165 12.0908 96.3379 11.9766C96.5137 11.8623 96.6543 11.7114 96.7598 11.5239C96.8652 11.3364 96.9473 11.1328 97.0059 10.9131V9.854C96.9707 9.69287 96.9194 9.5376 96.8521 9.38818C96.7876 9.23584 96.7026 9.10107 96.5972 8.98389C96.4946 8.86377 96.3672 8.76855 96.2148 8.69824C96.0654 8.62793 95.8882 8.59277 95.6831 8.59277C95.4604 8.59277 95.2686 8.63965 95.1074 8.7334C94.9492 8.82422 94.8188 8.9502 94.7163 9.11133C94.6138 9.26953 94.5376 9.4541 94.4878 9.66504C94.4409 9.87305 94.4175 10.0957 94.4175 10.333ZM100.218 12.2578L101.541 7.99512H102.411L100.504 13.4839C100.46 13.6011 100.401 13.7271 100.328 13.8618C100.258 13.9995 100.167 14.1299 100.056 14.2529C99.9443 14.376 99.8096 14.4756 99.6514 14.5518C99.4961 14.6309 99.3101 14.6704 99.0933 14.6704C99.0288 14.6704 98.9468 14.6616 98.8472 14.644C98.7476 14.6265 98.6772 14.6118 98.6362 14.6001L98.6318 13.9409C98.6553 13.9438 98.6919 13.9468 98.7417 13.9497C98.7944 13.9556 98.8311 13.9585 98.8516 13.9585C99.0361 13.9585 99.1929 13.9336 99.3218 13.8838C99.4507 13.8369 99.5591 13.7563 99.647 13.6421C99.7378 13.5308 99.8154 13.377 99.8799 13.1807L100.218 12.2578ZM99.2471 7.99512L100.482 11.6865L100.693 12.5435L100.108 12.8423L98.3594 7.99512H99.2471Z" fill="#BDBDBD"/>
<path d="M77.582 13.6289H102.521V14.0684H77.582V13.6289Z" fill="#BDBDBD"/>
<defs>
<linearGradient id="paint0_linear_1_2568" x1="0.25" y1="-0.000138533" x2="23.9995" y2="3.51748" gradientUnits="userSpaceOnUse">
<stop stop-color="#2D8DFE"/>
<stop offset="1" stop-color="#0E77F1"/>
</linearGradient>
<linearGradient id="paint1_linear_1_2568" x1="0.249832" y1="-0.000139367" x2="23.9994" y2="3.51748" gradientUnits="userSpaceOnUse">
<stop stop-color="#2D8DFE"/>
<stop offset="1" stop-color="#0E77F1"/>
</linearGradient>
<linearGradient id="paint2_linear_1_2568" x1="0.250149" y1="1.31328e-05" x2="23.9997" y2="3.51763" gradientUnits="userSpaceOnUse">
<stop stop-color="#2D8DFE"/>
<stop offset="1" stop-color="#0E77F1"/>
</linearGradient>
<linearGradient id="paint3_linear_1_2568" x1="0.2499" y1="-1.28627e-05" x2="23.9994" y2="3.51761" gradientUnits="userSpaceOnUse">
<stop stop-color="#2D8DFE"/>
<stop offset="1" stop-color="#0E77F1"/>
</linearGradient>
<linearGradient id="paint4_linear_1_2568" x1="0.250075" y1="4.19052e-07" x2="23.9996" y2="3.51762" gradientUnits="userSpaceOnUse">
<stop stop-color="#2D8DFE"/>
<stop offset="1" stop-color="#0E77F1"/>
</linearGradient>
</defs>
</svg>
