<svg width="138" height="97" viewBox="0 0 138 97" fill="none" xmlns="http://www.w3.org/2000/svg">
<g filter="url(#filter0_d_1_862)">
<g clip-path="url(#clip0_1_862)">
<rect width="102.195" height="55.4649" rx="3.8638" transform="matrix(0.993213 -0.116306 0.11703 0.993128 14.8384 23.8855)" fill="#F1F7FF" fill-opacity="0.9" shape-rendering="crispEdges"/>
<g filter="url(#filter1_d_1_862)">
<g clip-path="url(#clip1_1_862)">
<rect width="94.6631" height="47.9111" rx="2.31828" transform="matrix(0.993213 -0.116306 0.11703 0.993128 19.1281 27.2732)" fill="white"/>
<path d="M27.8906 35.8721L27.9219 36.1383L26.6145 36.2914L26.5831 36.0252L27.8906 35.8721ZM26.3897 33.8148L26.6806 36.2837L26.3533 36.322L26.0624 33.8532L26.3897 33.8148ZM27.5831 34.7512L27.6145 35.0174L26.48 35.1503L26.4486 34.884L27.5831 34.7512ZM27.6141 33.6715L27.6456 33.9394L26.3551 34.0905L26.3236 33.8226L27.6141 33.6715ZM28.9624 35.7896C29.037 35.7808 29.1042 35.7575 29.1639 35.7196C29.2236 35.6816 29.2707 35.6337 29.3051 35.5758C29.3394 35.5168 29.3554 35.4525 29.3529 35.3828L29.6513 35.3479C29.6585 35.4571 29.6337 35.5626 29.5769 35.6643C29.5211 35.7648 29.4424 35.8503 29.3406 35.9206C29.2387 35.9899 29.1228 36.0321 28.9928 36.0473C28.8549 36.0635 28.7316 36.0533 28.623 36.0167C28.5155 35.98 28.4229 35.9232 28.3451 35.8464C28.2684 35.7694 28.2066 35.6781 28.1598 35.5724C28.1139 35.4655 28.0837 35.3504 28.0692 35.2272L28.0608 35.156C28.0463 35.0327 28.049 34.9144 28.0688 34.8009C28.0897 34.6861 28.1285 34.5825 28.1852 34.4899C28.243 34.3972 28.32 34.3205 28.416 34.26C28.5131 34.1994 28.6307 34.1609 28.7686 34.1448C28.9122 34.128 29.0411 34.1427 29.1555 34.1889C29.2697 34.234 29.3632 34.3032 29.4361 34.3967C29.51 34.4889 29.5572 34.598 29.5778 34.7239L29.2794 34.7589C29.2648 34.6838 29.2352 34.6179 29.1907 34.5612C29.1474 34.5044 29.0919 34.4616 29.0243 34.4329C28.9578 34.4029 28.8826 34.3927 28.799 34.4025C28.7029 34.4138 28.6243 34.4425 28.5633 34.4886C28.5032 34.5334 28.4578 34.5903 28.4269 34.6593C28.3971 34.7269 28.3783 34.8008 28.3705 34.8807C28.3637 34.9595 28.3651 35.039 28.3746 35.1192L28.3829 35.1904C28.3924 35.2707 28.4096 35.3489 28.4347 35.4251C28.4597 35.5012 28.4946 35.5687 28.5393 35.6277C28.5852 35.6865 28.6427 35.7313 28.7116 35.7622C28.7816 35.7918 28.8652 35.801 28.9624 35.7896ZM29.8923 34.9982L29.8877 34.9592C29.8721 34.827 29.8769 34.7021 29.902 34.5845C29.927 34.4658 29.9707 34.3604 30.0332 34.2683C30.0956 34.1751 30.1755 34.0992 30.2729 34.0408C30.3702 33.9813 30.4827 33.9441 30.6104 33.9291C30.7393 33.914 30.858 33.9242 30.9665 33.9596C31.0759 33.9938 31.1718 34.049 31.2542 34.1253C31.3375 34.2004 31.4051 34.2927 31.457 34.4024C31.5088 34.511 31.5425 34.6314 31.5581 34.7636L31.5626 34.8026C31.5782 34.9349 31.5735 35.0598 31.5484 35.1773C31.5232 35.2949 31.4789 35.4003 31.4154 35.4937C31.3529 35.5859 31.273 35.6617 31.1758 35.7212C31.0795 35.7795 30.9669 35.8161 30.838 35.8312C30.7091 35.8463 30.5905 35.8367 30.4822 35.8024C30.3737 35.767 30.2778 35.7118 30.1945 35.6367C30.1121 35.5604 30.0451 35.468 29.9933 35.3594C29.9416 35.2509 29.9079 35.1305 29.8923 34.9982ZM30.2014 34.9225L30.206 34.9615C30.2168 35.0531 30.2377 35.1383 30.2688 35.2171C30.2997 35.2949 30.3404 35.3623 30.3906 35.4195C30.4421 35.4765 30.5027 35.5192 30.5725 35.5477C30.6422 35.5751 30.7206 35.5837 30.8076 35.5735C30.8936 35.5634 30.9667 35.5371 31.027 35.4945C31.0883 35.4507 31.1368 35.3951 31.1724 35.3279C31.208 35.2607 31.2319 35.1857 31.2439 35.103C31.2569 35.0189 31.258 34.9311 31.2472 34.8396L31.2426 34.8006C31.232 34.7101 31.2106 34.6261 31.1785 34.5485C31.1475 34.4696 31.1062 34.4017 31.0548 34.3447C31.0044 34.2864 30.9443 34.243 30.8744 34.2145C30.8057 34.1859 30.7279 34.1767 30.6408 34.1869C30.5549 34.1969 30.4813 34.2239 30.42 34.2677C30.3598 34.3114 30.3114 34.3675 30.2748 34.436C30.2391 34.5032 30.2154 34.5788 30.2035 34.6627C30.1914 34.7454 30.1908 34.8321 30.2014 34.9225ZM32.2092 34.1459L32.3825 35.616L32.0671 35.6529L31.8509 33.8182L32.1493 33.7833L32.2092 34.1459ZM32.2017 34.6367L32.0553 34.6487C32.0417 34.5231 32.0444 34.4053 32.0635 34.2953C32.0825 34.1842 32.1185 34.0854 32.1713 33.999C32.2242 33.9126 32.2944 33.8425 32.3821 33.7887C32.4696 33.7338 32.5744 33.6991 32.6965 33.6848C32.7824 33.6748 32.863 33.6779 32.9383 33.6943C33.0134 33.7096 33.0806 33.7401 33.1399 33.7859C33.1991 33.8317 33.2483 33.8936 33.2873 33.9715C33.3262 34.0495 33.3525 34.1461 33.3661 34.2614L33.5102 35.4839L33.1965 35.5207L33.0542 34.3134C33.0429 34.2173 33.0174 34.1423 32.9778 34.0885C32.9394 34.0346 32.8892 33.9981 32.8274 33.9789C32.7654 33.9587 32.6948 33.9532 32.6157 33.9625C32.523 33.9733 32.4475 33.9988 32.3892 34.0388C32.3309 34.0789 32.2864 34.13 32.2559 34.192C32.2254 34.254 32.2061 34.3233 32.1979 34.3999C32.1907 34.4752 32.192 34.5542 32.2017 34.6367ZM33.3701 34.3245L33.1674 34.4136C33.1567 34.3128 33.1617 34.2143 33.1824 34.1179C33.2043 34.0213 33.2415 33.9333 33.294 33.8538C33.3477 33.7742 33.4173 33.7082 33.5028 33.6557C33.5881 33.6022 33.6891 33.5686 33.8055 33.555C33.9039 33.5435 33.9924 33.5463 34.0713 33.5634C34.1512 33.5804 34.2204 33.613 34.2788 33.6611C34.3382 33.7081 34.3863 33.7717 34.4233 33.8522C34.4603 33.9327 34.4856 34.0306 34.4992 34.1459L34.6413 35.3515L34.3259 35.3884L34.1834 34.1794C34.1713 34.0766 34.1455 33.9988 34.106 33.9461C34.0676 33.8922 34.0176 33.8573 33.9562 33.8416C33.8957 33.8246 33.8254 33.8208 33.7451 33.8302C33.6761 33.8383 33.6165 33.8573 33.5662 33.8873C33.5158 33.9172 33.475 33.9552 33.4438 34.0013C33.4124 34.0462 33.3902 34.0964 33.3773 34.1518C33.3654 34.207 33.3631 34.2646 33.3701 34.3245ZM35.2636 33.7882L35.4368 35.2583L35.1214 35.2953L34.9052 33.4606L35.2036 33.4256L35.2636 33.7882ZM35.2561 34.279L35.1096 34.291C35.096 34.1654 35.0987 34.0476 35.1178 33.9376C35.1368 33.8265 35.1728 33.7278 35.2256 33.6414C35.2785 33.555 35.3487 33.4849 35.4364 33.431C35.5239 33.3761 35.6287 33.3415 35.7508 33.3272C35.8367 33.3171 35.9173 33.3203 35.9926 33.3367C36.0677 33.352 36.1349 33.3825 36.1942 33.4282C36.2535 33.474 36.3026 33.5359 36.3416 33.6138C36.3806 33.6918 36.4068 33.7884 36.4204 33.9037L36.5645 35.1263L36.2508 35.163L36.1085 33.9557C36.0972 33.8596 36.0717 33.7847 36.0322 33.7309C35.9937 33.6769 35.9436 33.6404 35.8817 33.6213C35.8197 33.601 35.7492 33.5955 35.67 33.6048C35.5773 33.6157 35.5018 33.6411 35.4435 33.6812C35.3852 33.7212 35.3408 33.7723 35.3103 33.8343C35.2797 33.8963 35.2604 33.9656 35.2522 34.0422C35.2451 34.1176 35.2463 34.1965 35.2561 34.279ZM36.4244 33.9669L36.2217 34.0559C36.211 33.9552 36.216 33.8566 36.2368 33.7602C36.2586 33.6637 36.2958 33.5756 36.3483 33.4962C36.402 33.4165 36.4716 33.3505 36.5571 33.2981C36.6425 33.2445 36.7434 33.2109 36.8598 33.1973C36.9582 33.1858 37.0468 33.1886 37.1256 33.2057C37.2055 33.2227 37.2747 33.2553 37.3331 33.3035C37.3925 33.3504 37.4407 33.4141 37.4777 33.4946C37.5146 33.575 37.5399 33.6729 37.5535 33.7882L37.6956 34.9938L37.3802 35.0308L37.2377 33.8218C37.2256 33.7189 37.1998 33.6411 37.1604 33.5884C37.1219 33.5345 37.072 33.4997 37.0105 33.4839C36.95 33.4669 36.8797 33.4632 36.7994 33.4726C36.7305 33.4806 36.6708 33.4996 36.6205 33.5296C36.5701 33.5596 36.5293 33.5976 36.4981 33.6436C36.4667 33.6886 36.4445 33.7387 36.4316 33.7941C36.4198 33.8494 36.4174 33.9069 36.4244 33.9669ZM38.9445 34.882C38.8167 34.8969 38.6983 34.889 38.5893 34.8582C38.4812 34.8262 38.3852 34.775 38.3013 34.7046C38.2184 34.6341 38.1509 34.5469 38.0985 34.443C38.0461 34.3391 38.0124 34.2227 37.9972 34.0938L37.9888 34.0226C37.9712 33.8734 37.9776 33.738 38.008 33.6164C38.0382 33.4937 38.0864 33.3872 38.1526 33.2969C38.2187 33.2066 38.2974 33.135 38.3885 33.0819C38.4797 33.0288 38.5767 32.9963 38.6796 32.9842C38.8107 32.9689 38.9265 32.9782 39.0268 33.0123C39.1282 33.0463 39.2142 33.1004 39.2849 33.1746C39.3554 33.2477 39.4118 33.3374 39.4541 33.4436C39.4963 33.5487 39.5249 33.6657 39.5401 33.7945L39.5567 33.9353L38.1865 34.0957L38.1564 33.8397L39.2128 33.716L39.21 33.6922C39.1959 33.6114 39.1696 33.5342 39.1312 33.4608C39.0939 33.3872 39.0412 33.3292 38.9731 33.2868C38.9051 33.2443 38.8174 33.2294 38.71 33.242C38.6388 33.2503 38.575 33.2732 38.5187 33.3108C38.4622 33.3472 38.416 33.3973 38.3799 33.4611C38.3439 33.5249 38.319 33.6006 38.3053 33.6882C38.2915 33.7757 38.2912 33.8749 38.3042 33.9857L38.3126 34.0569C38.3229 34.1439 38.3444 34.2245 38.3772 34.2986C38.411 34.3714 38.4545 34.4339 38.5076 34.4862C38.5619 34.5383 38.6243 34.5768 38.6949 34.6018C38.7666 34.6266 38.8454 34.634 38.9313 34.6239C39.0421 34.611 39.1332 34.5774 39.2048 34.5231C39.2763 34.4689 39.3365 34.4006 39.3852 34.3181L39.5929 34.4467C39.5604 34.5113 39.5168 34.5743 39.4622 34.6357C39.4075 34.6971 39.3375 34.75 39.2522 34.7944C39.168 34.8386 39.0655 34.8678 38.9445 34.882ZM40.1609 33.1374L40.3431 34.6838L40.0294 34.7205L39.8132 32.8858L40.1184 32.8501L40.1609 33.1374ZM40.6989 32.7718L40.7316 33.0637C40.7049 33.0611 40.6796 33.0606 40.6558 33.0622C40.6329 33.0626 40.6067 33.0645 40.5774 33.068C40.505 33.0764 40.4425 33.0952 40.3897 33.1243C40.337 33.1534 40.2938 33.1906 40.2602 33.2358C40.2265 33.281 40.2017 33.3331 40.1858 33.3923C40.1708 33.4502 40.1639 33.5129 40.165 33.5804L40.0828 33.6416C40.0697 33.5308 40.0682 33.4256 40.0782 33.3258C40.0894 33.226 40.1137 33.136 40.1513 33.056C40.1887 32.9748 40.2406 32.9091 40.3069 32.859C40.3742 32.8076 40.4576 32.776 40.557 32.7644C40.5797 32.7617 40.606 32.7615 40.6361 32.7637C40.666 32.7648 40.6869 32.7675 40.6989 32.7718ZM41.8889 34.2759C41.9636 34.2671 42.0307 34.2438 42.0904 34.2059C42.1502 34.1679 42.1972 34.12 42.2317 34.0621C42.266 34.0031 42.2819 33.9388 42.2794 33.8691L42.5779 33.8342C42.585 33.9434 42.5602 34.0489 42.5034 34.1506C42.4476 34.2511 42.3689 34.3366 42.2671 34.4069C42.1653 34.4762 42.0493 34.5184 41.9193 34.5336C41.7814 34.5498 41.6581 34.5396 41.5495 34.503C41.442 34.4663 41.3494 34.4095 41.2716 34.3327C41.1949 34.2557 41.1331 34.1644 41.0863 34.0587C41.0404 33.9518 41.0103 33.8367 40.9957 33.7135L40.9874 33.6423C40.9728 33.519 40.9755 33.4007 40.9954 33.2872C41.0162 33.1724 41.055 33.0688 41.1117 32.9762C41.1696 32.8835 41.2465 32.8068 41.3425 32.7463C41.4397 32.6856 41.5572 32.6472 41.6951 32.6311C41.8387 32.6143 41.9677 32.629 42.082 32.6752C42.1962 32.7203 42.2897 32.7895 42.3626 32.883C42.4365 32.9752 42.4838 33.0843 42.5043 33.2102L42.2059 33.2451C42.1913 33.1701 42.1618 33.1042 42.1173 33.0475C42.0739 32.9907 42.0184 32.9479 41.9508 32.9192C41.8843 32.8891 41.8092 32.879 41.7255 32.8888C41.6294 32.9001 41.5508 32.9288 41.4898 32.9749C41.4298 33.0197 41.3843 33.0766 41.3535 33.1456C41.3236 33.2132 41.3048 33.2871 41.297 33.367C41.2903 33.4458 41.2916 33.5253 41.3011 33.6055L41.3095 33.6767C41.3189 33.757 41.3362 33.8352 41.3612 33.9113C41.3862 33.9875 41.4211 34.055 41.4659 34.114C41.5118 34.1728 41.5692 34.2176 41.6382 34.2485C41.7081 34.2781 41.7917 34.2873 41.8889 34.2759ZM43.773 34.3165C43.6453 34.3315 43.5269 34.3236 43.4178 34.2928C43.3097 34.2608 43.2137 34.2096 43.1298 34.1392C43.047 34.0686 42.9794 33.9814 42.927 33.8775C42.8747 33.7737 42.8409 33.6573 42.8257 33.5284L42.8173 33.4572C42.7997 33.308 42.8061 33.1726 42.8365 33.051C42.8667 32.9282 42.9149 32.8217 42.9811 32.7315C43.0472 32.6412 43.1259 32.5696 43.2171 32.5165C43.3082 32.4634 43.4053 32.4308 43.5081 32.4188C43.6393 32.4034 43.755 32.4128 43.8553 32.4469C43.9567 32.4809 44.0427 32.535 44.1134 32.6092C44.1839 32.6823 44.2403 32.772 44.2826 32.8782C44.3248 32.9833 44.3535 33.1002 44.3687 33.2291L44.3852 33.3699L43.015 33.5303L42.9849 33.2743L44.0413 33.1505L44.0386 33.1268C44.0244 33.0459 43.9982 32.9688 43.9597 32.8954C43.9224 32.8218 43.8697 32.7638 43.8017 32.7213C43.7336 32.6789 43.6459 32.664 43.5385 32.6765C43.4673 32.6849 43.4035 32.7078 43.3472 32.7453C43.2907 32.7818 43.2445 32.8319 43.2085 32.8957C43.1724 32.9595 43.1475 33.0352 43.1338 33.1227C43.12 33.2103 43.1197 33.3095 43.1327 33.4203L43.1411 33.4915C43.1514 33.5785 43.1729 33.6591 43.2057 33.7332C43.2395 33.806 43.283 33.8685 43.3361 33.9207C43.3904 33.9728 43.4528 34.0114 43.5234 34.0363C43.5951 34.0612 43.6739 34.0686 43.7598 34.0585C43.8706 34.0455 43.9618 34.0119 44.0333 33.9577C44.1049 33.9035 44.165 33.8351 44.2137 33.7527L44.4214 33.8813C44.3889 33.9459 44.3454 34.0088 44.2907 34.0703C44.236 34.1317 44.1661 34.1846 44.0807 34.2289C43.9966 34.2732 43.894 34.3024 43.773 34.3165ZM46.436 33.7434C46.5106 33.7347 46.5777 33.7113 46.6375 33.6734C46.6972 33.6355 46.7442 33.5875 46.7787 33.5297C46.813 33.4706 46.8289 33.4063 46.8264 33.3367L47.1249 33.3017C47.132 33.4109 47.1072 33.5164 47.0504 33.6182C46.9947 33.7187 46.9159 33.8041 46.8142 33.8745C46.7123 33.9437 46.5963 33.9859 46.4663 34.0011C46.3284 34.0173 46.2051 34.0071 46.0965 33.9705C45.9891 33.9338 45.8964 33.8771 45.8186 33.8002C45.7419 33.7233 45.6801 33.6319 45.6333 33.5263C45.5875 33.4193 45.5573 33.3042 45.5428 33.181L45.5344 33.1098C45.5199 32.9866 45.5225 32.8682 45.5424 32.7547C45.5632 32.64 45.602 32.5363 45.6587 32.4437C45.7166 32.351 45.7935 32.2744 45.8895 32.2138C45.9867 32.1532 46.1042 32.1148 46.2421 32.0986C46.3857 32.0818 46.5147 32.0965 46.629 32.1427C46.7432 32.1878 46.8367 32.2571 46.9096 32.3505C46.9836 32.4427 47.0308 32.5518 47.0514 32.6777L46.7529 32.7127C46.7383 32.6376 46.7088 32.5717 46.6643 32.5151C46.6209 32.4583 46.5654 32.4155 46.4979 32.3867C46.4313 32.3567 46.3562 32.3466 46.2725 32.3564C46.1764 32.3676 46.0979 32.3963 46.0368 32.4424C45.9768 32.4873 45.9313 32.5442 45.9005 32.6131C45.8706 32.6808 45.8518 32.7546 45.8441 32.8346C45.8373 32.9133 45.8386 32.9928 45.8481 33.0731L45.8565 33.1443C45.8659 33.2245 45.8832 33.3027 45.9082 33.3789C45.9332 33.455 45.9681 33.5226 46.0129 33.5815C46.0588 33.6403 46.1162 33.6852 46.1852 33.716C46.2551 33.7457 46.3387 33.7548 46.436 33.7434ZM47.3658 32.9521L47.3612 32.9131C47.3457 32.7808 47.3504 32.6559 47.3755 32.5384C47.4005 32.4197 47.4443 32.3143 47.5068 32.2222C47.5691 32.1289 47.649 32.0531 47.7464 31.9947C47.8437 31.9352 47.9562 31.8979 48.084 31.883C48.2129 31.8679 48.3315 31.878 48.44 31.9135C48.5495 31.9476 48.6454 32.0029 48.7277 32.0792C48.8111 32.1542 48.8787 32.2466 48.9306 32.3563C48.9823 32.4648 49.016 32.5852 49.0316 32.7175L49.0362 32.7565C49.0518 32.8887 49.047 33.0136 49.0219 33.1312C48.9968 33.2487 48.9525 33.3542 48.889 33.4476C48.8265 33.5397 48.7466 33.6155 48.6493 33.675C48.553 33.7333 48.4404 33.77 48.3116 33.7851C48.1827 33.8002 48.0641 33.7906 47.9557 33.7563C47.8473 33.7208 47.7514 33.6656 47.668 33.5905C47.5857 33.5142 47.5186 33.4218 47.4669 33.3133C47.4151 33.2047 47.3814 33.0843 47.3658 32.9521ZM47.675 32.8763L47.6796 32.9153C47.6903 33.0069 47.7113 33.0921 47.7424 33.171C47.7733 33.2487 47.8139 33.3162 47.8642 33.3733C47.9156 33.4303 47.9762 33.4731 48.0461 33.5016C48.1158 33.5289 48.1941 33.5375 48.2812 33.5273C48.3671 33.5173 48.4402 33.4909 48.5005 33.4484C48.5618 33.4045 48.6103 33.349 48.6459 33.2818C48.6816 33.2146 48.7054 33.1396 48.7174 33.0568C48.7304 32.9728 48.7316 32.885 48.7208 32.7934L48.7162 32.7544C48.7055 32.664 48.6842 32.5799 48.6521 32.5023C48.621 32.4235 48.5798 32.3555 48.5284 32.2985C48.4779 32.2402 48.4178 32.1968 48.348 32.1683C48.2793 32.1397 48.2014 32.1305 48.1143 32.1407C48.0284 32.1508 47.9548 32.1777 47.8935 32.2216C47.8333 32.2653 47.7849 32.3214 47.7483 32.3898C47.7127 32.457 47.6889 32.5326 47.677 32.6165C47.665 32.6993 47.6643 32.7859 47.675 32.8763ZM49.6877 32.1266L49.8577 33.5696L49.544 33.6064L49.3278 31.7717L49.6246 31.7369L49.6877 32.1266ZM49.6668 32.5915L49.5356 32.6017C49.522 32.4761 49.527 32.358 49.5506 32.2475C49.5742 32.1359 49.614 32.0367 49.6703 31.9499C49.7265 31.8631 49.7973 31.7929 49.8827 31.7394C49.9691 31.6846 50.0677 31.6507 50.1785 31.6377C50.2689 31.6271 50.3518 31.63 50.4271 31.6464C50.5022 31.6617 50.5684 31.6929 50.6255 31.7401C50.6838 31.7871 50.7315 31.8514 50.7686 31.933C50.8056 32.0135 50.8312 32.1142 50.8454 32.2352L50.9871 33.4374L50.6717 33.4743L50.5296 32.2687C50.5183 32.1726 50.4951 32.0974 50.4601 32.0431C50.4249 31.9876 50.3786 31.95 50.3213 31.9304C50.2638 31.9096 50.1955 31.9039 50.1164 31.9131C50.0384 31.9223 49.9691 31.947 49.9085 31.9873C49.8491 32.0275 49.7996 32.0792 49.76 32.1422C49.7216 32.2052 49.6938 32.2755 49.6765 32.3531C49.6603 32.4295 49.6571 32.509 49.6668 32.5915ZM51.9969 33.0321L52.316 31.4218L52.6365 31.3842L52.193 33.2962L51.9827 33.3208L51.9969 33.0321ZM51.3952 31.5296L52.0962 33.029L52.1642 33.2995L51.9539 33.3242L51.073 31.5673L51.3952 31.5296ZM53.9049 33.1301C53.7771 33.145 53.6587 33.1371 53.5497 33.1064C53.4416 33.0743 53.3456 33.0231 53.2616 32.9527C53.1788 32.8822 53.1112 32.795 53.0589 32.6911C53.0065 32.5872 52.9728 32.4708 52.9576 32.342L52.9492 32.2707C52.9316 32.1215 52.938 31.9861 52.9684 31.8645C52.9986 31.7418 53.0468 31.6353 53.1129 31.545C53.1791 31.4548 53.2578 31.3831 53.3489 31.33C53.4401 31.277 53.5371 31.2444 53.64 31.2323C53.7711 31.217 53.8869 31.2264 53.9871 31.2605C54.0886 31.2944 54.1746 31.3485 54.2452 31.4228C54.3157 31.4959 54.3722 31.5855 54.4145 31.6917C54.4567 31.7968 54.4853 31.9138 54.5005 32.0427L54.5171 32.1834L53.1469 32.3439L53.1167 32.0878L54.1732 31.9641L54.1704 31.9404C54.1563 31.8595 54.13 31.7824 54.0916 31.7089C54.0542 31.6354 54.0016 31.5774 53.9335 31.5349C53.8655 31.4924 53.7778 31.4775 53.6704 31.4901C53.5991 31.4984 53.5354 31.5214 53.479 31.5589C53.4226 31.5953 53.3763 31.6454 53.3403 31.7092C53.3043 31.773 53.2794 31.8487 53.2656 31.9363C53.2519 32.0239 53.2515 32.123 53.2646 32.2338L53.273 32.305C53.2832 32.3921 53.3048 32.4726 53.3376 32.5467C53.3714 32.6195 53.4148 32.6821 53.468 32.7343C53.5223 32.7864 53.5847 32.8249 53.6552 32.8499C53.7269 32.8747 53.8057 32.8821 53.8917 32.8721C54.0025 32.8591 54.0936 32.8255 54.1652 32.7713C54.2367 32.7171 54.2969 32.6487 54.3456 32.5662L54.5533 32.6949C54.5208 32.7594 54.4772 32.8224 54.4226 32.8838C54.3679 32.9452 54.2979 32.9981 54.2126 33.0425C54.1284 33.0867 54.0258 33.1159 53.9049 33.1301ZM55.1213 31.3855L55.3035 32.9319L54.9898 32.9687L54.7736 31.134L55.0788 31.0982L55.1213 31.3855ZM55.6593 31.0199L55.692 31.3118C55.6653 31.3092 55.64 31.3087 55.6161 31.3104C55.5933 31.3107 55.5671 31.3127 55.5377 31.3161C55.4654 31.3246 55.4028 31.3434 55.3501 31.3725C55.2974 31.4016 55.2542 31.4387 55.2205 31.4839C55.1869 31.5291 55.1621 31.5813 55.1462 31.6404C55.1312 31.6983 55.1243 31.761 55.1253 31.8285L55.0432 31.8897C55.0301 31.779 55.0286 31.6737 55.0386 31.574C55.0498 31.4741 55.0741 31.3841 55.1117 31.3041C55.1491 31.2229 55.201 31.1573 55.2673 31.1071C55.3346 31.0557 55.4179 31.0241 55.5174 31.0125C55.54 31.0098 55.5664 31.0096 55.5964 31.0118C55.6264 31.0129 55.6473 31.0156 55.6593 31.0199ZM57.1863 32.2181C57.181 32.1729 57.1659 32.1322 57.141 32.0962C57.1172 32.0589 57.0728 32.028 57.008 32.0035C56.9443 31.9777 56.8505 31.96 56.7267 31.9504C56.6225 31.9409 56.5273 31.9262 56.4413 31.9065C56.3565 31.8866 56.2827 31.8592 56.2202 31.8241C56.1587 31.7889 56.1094 31.7448 56.0722 31.6919C56.035 31.6389 56.012 31.5746 56.003 31.4988C55.9945 31.4265 56.0023 31.3563 56.0263 31.2881C56.0515 31.2198 56.0906 31.1574 56.1435 31.1008C56.1976 31.044 56.2648 30.9966 56.3451 30.9585C56.4254 30.9205 56.517 30.8954 56.6199 30.8834C56.7669 30.8662 56.8954 30.8775 57.0056 30.9173C57.1157 30.9571 57.2036 31.0173 57.2692 31.0979C57.3348 31.1773 57.3737 31.2696 57.3861 31.3747L57.0724 31.4114C57.0664 31.3606 57.0453 31.3132 57.0092 31.2693C56.9741 31.2241 56.9258 31.1891 56.8644 31.1642C56.8042 31.1392 56.7328 31.1315 56.6503 31.1411C56.5632 31.1513 56.4942 31.1732 56.4431 31.2066C56.393 31.2389 56.3579 31.2768 56.3379 31.3204C56.3189 31.3639 56.3121 31.4082 56.3174 31.4534C56.3214 31.4873 56.3307 31.5172 56.3452 31.543C56.3607 31.5676 56.385 31.5893 56.4182 31.6084C56.4513 31.6263 56.4966 31.6416 56.5543 31.6543C56.612 31.6671 56.6849 31.678 56.7731 31.6872C56.9274 31.7035 57.056 31.7297 57.1588 31.7658C57.2617 31.8018 57.3409 31.8516 57.3965 31.915C57.4521 31.9784 57.4857 32.0593 57.4973 32.1576C57.5067 32.2379 57.4984 32.3133 57.4724 32.384C57.4474 32.4545 57.4062 32.5178 57.3486 32.5738C57.292 32.6286 57.2218 32.6746 57.138 32.712C57.0551 32.748 56.96 32.7723 56.8526 32.7849C56.6909 32.8038 56.5507 32.791 56.432 32.7465C56.3133 32.7019 56.2197 32.6373 56.1513 32.5525C56.0828 32.4676 56.0426 32.3744 56.0306 32.2726L56.346 32.2357C56.3607 32.3211 56.3936 32.3866 56.4448 32.4321C56.4959 32.4766 56.5555 32.5057 56.6236 32.5195C56.6916 32.5322 56.7578 32.5347 56.8222 32.5272C56.9081 32.5171 56.9786 32.4974 57.0336 32.468C57.0897 32.4385 57.1307 32.4022 57.1565 32.3591C57.1824 32.316 57.1923 32.269 57.1863 32.2181ZM58.1028 30.7441L58.319 32.5788L58.0036 32.6157L57.7874 30.7811L58.1028 30.7441ZM57.7063 30.2972C57.7003 30.2463 57.7105 30.2016 57.7369 30.163C57.7644 30.1242 57.8087 30.1013 57.8698 30.0941C57.9297 30.0871 57.9776 30.0993 58.0133 30.1306C58.0503 30.1618 58.0717 30.2028 58.0777 30.2537C58.0834 30.3023 58.072 30.3461 58.0433 30.3849C58.0157 30.4226 57.9719 30.4449 57.9119 30.4519C57.8509 30.459 57.8025 30.4475 57.7669 30.4173C57.7322 30.3858 57.7121 30.3458 57.7063 30.2972ZM58.6426 31.6315L58.638 31.5925C58.6224 31.4603 58.6271 31.3354 58.6523 31.2178C58.6772 31.0992 58.721 30.9938 58.7835 30.9016C58.8458 30.8084 58.9257 30.7326 59.0232 30.6742C59.1204 30.6146 59.233 30.5774 59.3607 30.5624C59.4896 30.5474 59.6083 30.5575 59.7167 30.593C59.8262 30.6271 59.9221 30.6824 60.0045 30.7587C60.0878 30.8337 60.1554 30.9261 60.2073 31.0357C60.2591 31.1443 60.2927 31.2647 60.3083 31.397L60.3129 31.4359C60.3285 31.5682 60.3237 31.6931 60.2986 31.8107C60.2735 31.9282 60.2292 32.0337 60.1657 32.1271C60.1032 32.2192 60.0233 32.295 59.926 32.3545C59.8297 32.4128 59.7172 32.4495 59.5883 32.4646C59.4594 32.4797 59.3408 32.47 59.2325 32.4357C59.124 32.4003 59.0281 32.3451 58.9447 32.27C58.8624 32.1937 58.7953 32.1013 58.7436 31.9928C58.6918 31.8842 58.6581 31.7638 58.6426 31.6315ZM58.9517 31.5558L58.9563 31.5948C58.9671 31.6864 58.988 31.7716 59.0191 31.8505C59.05 31.9282 59.0906 31.9957 59.1409 32.0528C59.1923 32.1098 59.253 32.1526 59.3228 32.1811C59.3925 32.2084 59.4709 32.217 59.5579 32.2068C59.6438 32.1968 59.7169 32.1704 59.7773 32.1278C59.8386 32.084 59.887 32.0285 59.9227 31.9613C59.9583 31.8941 59.9821 31.8191 59.9942 31.7363C60.0072 31.6523 60.0083 31.5645 59.9975 31.4729L59.9929 31.4339C59.9822 31.3435 59.9609 31.2594 59.9288 31.1818C59.8977 31.1029 59.8565 31.035 59.8051 30.978C59.7547 30.9197 59.6945 30.8763 59.6247 30.8478C59.556 30.8192 59.4781 30.81 59.3911 30.8202C59.3052 30.8302 59.2315 30.8572 59.1702 30.9011C59.1101 30.9448 59.0617 31.0009 59.025 31.0693C58.9894 31.1365 58.9656 31.2121 58.9537 31.296C58.9417 31.3788 58.941 31.4654 58.9517 31.5558ZM60.9644 30.8061L61.1344 32.2491L60.8207 32.2859L60.6045 30.4512L60.9013 30.4164L60.9644 30.8061ZM60.9435 31.271L60.8124 31.2812C60.7987 31.1556 60.8037 31.0375 60.8274 30.927C60.8509 30.8154 60.8908 30.7162 60.947 30.6294C61.0033 30.5426 61.0741 30.4724 61.1595 30.4189C61.2458 30.364 61.3444 30.3301 61.4552 30.3172C61.5456 30.3066 61.6285 30.3095 61.7038 30.3259C61.7789 30.3412 61.8451 30.3724 61.9022 30.4195C61.9605 30.4666 62.0082 30.5309 62.0453 30.6125C62.0823 30.693 62.1079 30.7937 62.1222 30.9147L62.2638 32.1169L61.9484 32.1538L61.8064 30.9482C61.795 30.8521 61.7718 30.7769 61.7368 30.7226C61.7016 30.6671 61.6553 30.6295 61.598 30.6099C61.5405 30.5891 61.4722 30.5834 61.3931 30.5926C61.3151 30.6018 61.2458 30.6265 61.1852 30.6668C61.1258 30.707 61.0763 30.7586 61.0367 30.8217C60.9983 30.8847 60.9705 30.955 60.9533 31.0326C60.9371 31.109 60.9338 31.1885 60.9435 31.271ZM63.7507 30.375L63.9329 31.9214L63.6192 31.9582L63.403 30.1235L63.7082 30.0877L63.7507 30.375ZM64.2887 30.0094L64.3214 30.3013C64.2947 30.2987 64.2694 30.2982 64.2455 30.2999C64.2227 30.3002 64.1965 30.3022 64.1671 30.3056C64.0948 30.3141 64.0322 30.3329 63.9795 30.3619C63.9268 30.391 63.8836 30.4282 63.8499 30.4734C63.8163 30.5186 63.7915 30.5708 63.7756 30.6299C63.7606 30.6878 63.7537 30.7505 63.7547 30.818L63.6726 30.8792C63.6595 30.7684 63.658 30.6632 63.668 30.5635C63.6792 30.4636 63.7035 30.3736 63.7411 30.2936C63.7785 30.2124 63.8304 30.1468 63.8967 30.0966C63.964 30.0452 64.0473 30.0136 64.1468 30.002C64.1694 29.9993 64.1958 29.9991 64.2258 30.0013C64.2558 30.0024 64.2767 30.0051 64.2887 30.0094ZM65.7819 31.3869L65.6706 30.4424C65.662 30.3701 65.6399 30.309 65.6043 30.2594C65.5696 30.2084 65.5217 30.1716 65.4606 30.149C65.3995 30.1263 65.3265 30.12 65.2418 30.1299C65.1626 30.1392 65.0947 30.1609 65.038 30.195C64.9824 30.229 64.9402 30.2701 64.9115 30.3181C64.8839 30.3661 64.8731 30.4155 64.8791 30.4663L64.5654 30.5031C64.5577 30.4375 64.567 30.3705 64.5933 30.3021C64.6196 30.2337 64.6614 30.1698 64.7185 30.1104C64.7767 30.0497 64.8487 29.9989 64.9344 29.9579C65.0211 29.9157 65.1198 29.888 65.2306 29.8751C65.364 29.8594 65.4843 29.8683 65.5914 29.9016C65.6996 29.9348 65.7879 29.9938 65.8563 30.0786C65.9258 30.1621 65.9686 30.2723 65.9847 30.4091L66.0854 31.2637C66.0926 31.3247 66.1053 31.3891 66.1236 31.4569C66.1431 31.5245 66.1664 31.5819 66.1938 31.6292L66.197 31.6563L65.8697 31.6946C65.8496 31.6603 65.8315 31.6137 65.8154 31.5549C65.7992 31.4949 65.788 31.4389 65.7819 31.3869ZM65.742 30.5819L65.7714 30.8019L65.4543 30.8391C65.365 30.8495 65.2861 30.8662 65.2178 30.8891C65.1493 30.9109 65.0929 30.9387 65.0488 30.9725C65.0046 31.0063 64.9727 31.0462 64.9528 31.092C64.9329 31.1368 64.9263 31.1874 64.9329 31.2439C64.9397 31.3016 64.9589 31.3526 64.9905 31.397C65.0221 31.4415 65.0656 31.4748 65.1209 31.4969C65.1772 31.5179 65.2438 31.5238 65.3207 31.5148C65.4168 31.5036 65.4992 31.4733 65.5679 31.424C65.6366 31.3747 65.6889 31.3181 65.725 31.2543C65.7621 31.1904 65.7791 31.1305 65.776 31.0747L65.9278 31.2099C65.9254 31.2583 65.9102 31.3134 65.8819 31.3752C65.8537 31.4369 65.8133 31.4978 65.7607 31.5578C65.7092 31.6166 65.6454 31.6682 65.5692 31.7126C65.4941 31.7558 65.4068 31.7832 65.3073 31.7949C65.1829 31.8094 65.071 31.7979 64.9714 31.7603C64.873 31.7225 64.793 31.666 64.7314 31.5907C64.6708 31.5141 64.6345 31.425 64.6225 31.3232C64.6109 31.2249 64.6199 31.1362 64.6496 31.0571C64.6791 30.9768 64.7271 30.9076 64.7936 30.8494C64.8599 30.79 64.9425 30.7414 65.0412 30.7035C65.1398 30.6656 65.2519 30.6393 65.3774 30.6246L65.742 30.5819ZM67.1867 29.6804L67.2151 29.9212L66.223 30.0373L66.1947 29.7966L67.1867 29.6804ZM66.4779 29.3113L66.7916 29.2746L67.0068 31.1008C67.0141 31.1629 67.0293 31.2087 67.0522 31.2381C67.0752 31.2675 67.1025 31.2855 67.1342 31.2921C67.1659 31.2987 67.1993 31.3 67.2344 31.2959C67.2604 31.2928 67.2872 31.2874 67.315 31.2796C67.3437 31.2705 67.3652 31.2634 67.3795 31.2582L67.4114 31.5141C67.3874 31.5249 67.3555 31.5361 67.3156 31.5477C67.277 31.5602 67.2294 31.5698 67.1729 31.5764C67.096 31.5854 67.0235 31.5784 66.9555 31.5554C66.8875 31.5325 66.83 31.4876 66.7832 31.4209C66.7374 31.3529 66.7073 31.2579 66.6929 31.1358L66.4779 29.3113ZM68.545 31.4157C68.4172 31.4307 68.2988 31.4228 68.1897 31.392C68.0817 31.36 67.9857 31.3087 67.9017 31.2384C67.8189 31.1678 67.7513 31.0806 67.699 30.9767C67.6466 30.8728 67.6128 30.7565 67.5977 30.6276L67.5893 30.5564C67.5717 30.4072 67.5781 30.2718 67.6084 30.1502C67.6387 30.0274 67.6869 29.9209 67.753 29.8307C67.8192 29.7404 67.8978 29.6687 67.989 29.6157C68.0802 29.5626 68.1772 29.53 68.2801 29.518C68.4112 29.5026 68.5269 29.512 68.6272 29.5461C68.7286 29.5801 68.8147 29.6342 68.8853 29.7084C68.9558 29.7815 69.0122 29.8712 69.0545 29.9774C69.0967 30.0825 69.1254 30.1994 69.1406 30.3283L69.1572 30.469L67.787 30.6295L67.7568 30.3735L68.8133 30.2497L68.8105 30.226C68.7964 30.1451 68.7701 30.068 68.7316 29.9946C68.6943 29.921 68.6416 29.863 68.5736 29.8205C68.5056 29.7781 68.4178 29.7631 68.3104 29.7757C68.2392 29.7841 68.1754 29.807 68.1191 29.8445C68.0627 29.8809 68.0164 29.9311 67.9804 29.9949C67.9444 30.0587 67.9195 30.1344 67.9057 30.2219C67.892 30.3095 67.8916 30.4087 67.9047 30.5194L67.9131 30.5907C67.9233 30.6777 67.9449 30.7583 67.9777 30.8324C68.0115 30.9052 68.0549 30.9677 68.1081 31.0199C68.1623 31.072 68.2248 31.1106 68.2953 31.1355C68.367 31.1604 68.4458 31.1678 68.5317 31.1577C68.6425 31.1447 68.7337 31.1111 68.8053 31.0569C68.8768 31.0027 68.9369 30.9343 68.9857 30.8518L69.1934 30.9805C69.1609 31.0451 69.1173 31.108 69.0626 31.1694C69.008 31.2309 68.938 31.2837 68.8527 31.3281C68.7685 31.3724 68.6659 31.4016 68.545 31.4157ZM69.5967 31.0897C69.5905 31.0366 69.6016 30.99 69.6301 30.95C69.6596 30.9087 69.706 30.8844 69.7694 30.877C69.8327 30.8696 69.8829 30.8826 69.9201 30.916C69.9583 30.9482 69.9805 30.9909 69.9868 31.044C69.9929 31.096 69.9811 31.1421 69.9515 31.1823C69.9229 31.2223 69.877 31.246 69.8137 31.2534C69.7504 31.2608 69.6997 31.2484 69.6615 31.2162C69.6244 31.1839 69.6028 31.1417 69.5967 31.0897ZM69.422 29.5923C69.4157 29.5391 69.4269 29.4926 69.4554 29.4526C69.4849 29.4113 69.5313 29.3869 69.5946 29.3795C69.6579 29.3721 69.7082 29.3851 69.7454 29.4186C69.7835 29.4508 69.8058 29.4935 69.812 29.5466C69.8181 29.5986 69.8064 29.6447 69.7767 29.6848C69.7482 29.7248 69.7023 29.7485 69.639 29.7559C69.5757 29.7634 69.5249 29.751 69.4867 29.7188C69.4497 29.6864 69.4281 29.6443 69.422 29.5923Z" fill="#919191"/>
<path d="M30.657 43.6258L30.7337 44.277L27.4235 44.6646L27.3576 44.105L28.7586 42.1635C28.9115 41.9439 29.0303 41.7558 29.115 41.5992C29.1997 41.4425 29.2556 41.3042 29.2827 41.1841C29.3118 41.0615 29.3198 40.9449 29.3068 40.8341C29.2884 40.6781 29.2429 40.5447 29.1703 40.4341C29.0996 40.3208 29.0049 40.2368 28.8861 40.182C28.7671 40.1249 28.6284 40.1056 28.4701 40.1241C28.287 40.1455 28.1379 40.2031 28.0229 40.2968C27.9078 40.3905 27.8269 40.5111 27.7801 40.6587C27.7331 40.8041 27.7201 40.966 27.7411 41.1446L26.9237 41.2403C26.8899 40.9532 26.9246 40.6833 27.0277 40.4305C27.1306 40.1755 27.2982 39.9634 27.5304 39.7941C27.7623 39.6225 28.0535 39.5162 28.404 39.4752C28.7341 39.4365 29.021 39.4591 29.2647 39.5429C29.5083 39.6266 29.7021 39.7632 29.8459 39.9527C29.992 40.1419 30.0814 40.3755 30.1142 40.6536C30.1323 40.8073 30.1254 40.9628 30.0935 41.1201C30.0616 41.2774 30.0082 41.4373 29.9334 41.5996C29.8605 41.7594 29.7708 41.9223 29.6643 42.0884C29.5576 42.2521 29.4386 42.4196 29.3075 42.5909L28.3778 43.8927L30.657 43.6258ZM31.5437 43.7696C31.5288 43.6429 31.5592 43.5317 31.635 43.4357C31.7105 43.3374 31.8218 43.2797 31.9687 43.2625C32.118 43.245 32.2396 43.2755 32.3337 43.3539C32.4297 43.4297 32.4852 43.5309 32.5001 43.6576C32.515 43.7842 32.4846 43.8955 32.4088 43.9914C32.3353 44.0871 32.2239 44.1437 32.0746 44.1612C31.9277 44.1784 31.8062 44.1491 31.7101 44.0732C31.6141 43.9974 31.5586 43.8962 31.5437 43.7696ZM35.2302 38.7274L35.814 43.6821L34.9966 43.7778L34.5271 39.793L33.3646 40.3451L33.2851 39.6703L35.1318 38.7389L35.2302 38.7274ZM37.196 39.7418L37.1652 39.4807C37.1431 39.293 37.1637 39.1175 37.2269 38.9543C37.2902 38.791 37.3944 38.6539 37.5395 38.5429C37.6846 38.432 37.8668 38.3636 38.0861 38.3379C38.3122 38.3115 38.5076 38.3356 38.6723 38.4103C38.8392 38.4847 38.9724 38.594 39.072 38.7382C39.1715 38.8824 39.2323 39.0484 39.2544 39.236L39.2852 39.4971C39.3068 39.6803 39.2859 39.8535 39.2226 40.0167C39.1616 40.1797 39.0585 40.3167 38.9135 40.4277C38.7706 40.5384 38.5873 40.6068 38.3634 40.6331C38.1419 40.659 37.9465 40.6349 37.7773 40.5607C37.6103 40.4863 37.4771 40.377 37.3776 40.2328C37.2781 40.0886 37.2175 39.9249 37.196 39.7418ZM37.7316 39.4143L37.7624 39.6755C37.773 39.7659 37.8001 39.8498 37.8436 39.9272C37.8894 40.0044 37.9514 40.0636 38.0296 40.1049C38.1078 40.1461 38.2 40.1605 38.3063 40.1481C38.4148 40.1354 38.5001 40.1002 38.5621 40.0425C38.6263 39.9846 38.6706 39.9129 38.6949 39.8276C38.7192 39.7422 38.726 39.6543 38.7154 39.5639L38.6846 39.3027C38.6737 39.21 38.6453 39.1251 38.5996 39.048C38.5558 38.9683 38.4959 38.9077 38.42 38.8661C38.344 38.8246 38.2518 38.8102 38.1433 38.8229C38.0393 38.8351 37.954 38.8703 37.8875 38.9285C37.8233 38.9864 37.778 39.0594 37.7517 39.1472C37.7274 39.2326 37.7207 39.3216 37.7316 39.4143ZM39.9045 42.2438L39.8734 41.9793C39.8515 41.7939 39.8722 41.6196 39.9355 41.4563C40.0011 41.2928 40.1064 41.1555 40.2515 41.0446C40.3966 40.9336 40.5788 40.8653 40.7981 40.8396C41.0242 40.8131 41.2196 40.8372 41.3843 40.9119C41.5512 40.9863 41.6833 41.0958 41.7805 41.2403C41.8801 41.3845 41.9407 41.5493 41.9626 41.7347L41.9938 41.9992C42.0156 42.1846 41.9949 42.3589 41.9316 42.5222C41.8706 42.6852 41.7687 42.822 41.6258 42.9327C41.483 43.0434 41.3008 43.1118 41.0792 43.1377C40.8554 43.1639 40.6588 43.1399 40.4897 43.0658C40.3227 42.9914 40.1884 42.8822 40.0866 42.7382C39.9871 42.594 39.9264 42.4292 39.9045 42.2438ZM40.4432 41.9126L40.4743 42.1771C40.485 42.2675 40.5132 42.3513 40.559 42.4285C40.607 42.5054 40.6702 42.5656 40.7487 42.6091C40.8269 42.6504 40.9169 42.6651 41.0187 42.6531C41.134 42.6396 41.2238 42.6039 41.288 42.546C41.352 42.4858 41.394 42.4144 41.414 42.3318C41.4361 42.2467 41.4417 42.1578 41.4308 42.0651L41.3996 41.8006C41.3887 41.7079 41.3603 41.623 41.3145 41.5458C41.271 41.4684 41.2102 41.4091 41.132 41.3678C41.056 41.3263 40.9638 41.3118 40.8552 41.3246C40.749 41.337 40.6637 41.3722 40.5995 41.4301C40.5353 41.4881 40.4898 41.5599 40.4633 41.6455C40.4389 41.7309 40.4322 41.8199 40.4432 41.9126ZM40.7654 38.8115L38.8088 42.9532L38.3632 42.7613L40.3199 38.6196L40.7654 38.8115Z" fill="#001E41"/>
<path d="M27.3551 70.9929L23.8092 66.9945L24.7355 74.8551L118.756 63.8452L118.2 59.1289L114.512 53.9212L112.277 61.0485L108.589 55.8408L105.926 59.3402L102.095 52.9232L100.145 62.4691L96.5994 58.4707L93.937 61.9701L90.106 55.5531L87.7286 61.4711L84.3252 58.6821L81.9478 64.6001L78.1168 58.1831L75.7394 64.1011L70.9109 49.2189L69.5311 63.6021L65.2726 53.5571L63.7502 66.731L60.2043 62.7326L55.9743 52.9295L54.1384 63.4429L50.336 57.2678L47.6451 60.5253L45.4102 67.6526L42.0067 64.8636L39.4868 69.5723L35.3709 60.7366L33.136 67.8639L29.4475 62.6563L27.3551 70.9929Z" fill="url(#paint0_linear_1_862)"/>
<path d="M23.8279 67.1562L27.3755 71.1575L29.4685 62.8151L33.1586 68.0266L35.3942 60.8943L39.5122 69.7363L42.033 65.0244L45.438 67.8155L47.6736 60.6832L50.3655 57.4235L54.1698 63.6031L56.0061 53.0824L60.2381 62.8925L63.7857 66.8939L65.3083 53.7107L69.5689 63.7629L70.9488 49.3696L75.7798 64.2625L78.158 58.3404L81.9908 64.762L84.369 58.8399L87.774 61.6311L90.1522 55.709L93.985 62.1306L96.6484 58.6289L100.196 62.6302L102.146 53.0776L105.979 59.4992L108.642 55.9975L112.333 61.209L114.568 54.0767L118.258 59.2882" stroke="#98CB56" stroke-width="0.582784" stroke-linecap="round"/>
</g>
</g>
</g>
</g>
<defs>
<filter id="filter0_d_1_862" x="-0.401523" y="-0.192165" width="138.472" height="97.4493" filterUnits="userSpaceOnUse" color-interpolation-filters="sRGB">
<feFlood flood-opacity="0" result="BackgroundImageFix"/>
<feColorMatrix in="SourceAlpha" type="matrix" values="0 0 0 0 0 0 0 0 0 0 0 0 0 0 0 0 0 0 127 0" result="hardAlpha"/>
<feOffset dy="3.04798"/>
<feGaussianBlur stdDeviation="7.61995"/>
<feComposite in2="hardAlpha" operator="out"/>
<feColorMatrix type="matrix" values="0 0 0 0 0 0 0 0 0 0 0 0 0 0 0 0 0 0 0.12 0"/>
<feBlend mode="normal" in2="BackgroundImageFix" result="effect1_dropShadow_1_862"/>
<feBlend mode="normal" in="SourceGraphic" in2="effect1_dropShadow_1_862" result="shape"/>
</filter>
<filter id="filter1_d_1_862" x="11.4005" y="10.0814" width="115.083" height="74.0467" filterUnits="userSpaceOnUse" color-interpolation-filters="sRGB">
<feFlood flood-opacity="0" result="BackgroundImageFix"/>
<feColorMatrix in="SourceAlpha" type="matrix" values="0 0 0 0 0 0 0 0 0 0 0 0 0 0 0 0 0 0 127 0" result="hardAlpha"/>
<feOffset dy="1.54552"/>
<feGaussianBlur stdDeviation="3.8638"/>
<feComposite in2="hardAlpha" operator="out"/>
<feColorMatrix type="matrix" values="0 0 0 0 0 0 0 0 0 0 0 0 0 0 0 0 0 0 0.08 0"/>
<feBlend mode="normal" in2="BackgroundImageFix" result="effect1_dropShadow_1_862"/>
<feBlend mode="normal" in="SourceGraphic" in2="effect1_dropShadow_1_862" result="shape"/>
</filter>
<linearGradient id="paint0_linear_1_862" x1="69.0338" y1="47.4718" x2="71.5814" y2="69.2279" gradientUnits="userSpaceOnUse">
<stop stop-color="#98CB56"/>
<stop offset="0.0001" stop-color="#98CB56" stop-opacity="0.46"/>
<stop offset="1" stop-color="#98CB56" stop-opacity="0.1"/>
</linearGradient>
<clipPath id="clip0_1_862">
<rect width="102.195" height="55.4649" rx="3.8638" transform="matrix(0.993213 -0.116306 0.11703 0.993128 14.8384 23.8855)" fill="white"/>
</clipPath>
<clipPath id="clip1_1_862">
<rect width="94.6631" height="47.9111" rx="2.31828" transform="matrix(0.993213 -0.116306 0.11703 0.993128 19.1281 27.2732)" fill="white"/>
</clipPath>
</defs>
</svg>
